Coordinates
version=1
nRows=26
nColumns=24
inDegrees=yes

Units are S.I. units (second, meters, Newtons, ...)
Angles are in degrees.

endheader
time	pelvis_tilt	pelvis_list	pelvis_rotation	pelvis_tx	pelvis_ty	pelvis_tz	hip_flexion_r	hip_adduction_r	hip_rotation_r	knee_angle_r	ankle_angle_r	subtalar_angle_r	mtp_angle_r	hip_flexion_l	hip_adduction_l	hip_rotation_l	knee_angle_l	ankle_angle_l	subtalar_angle_l	mtp_angle_l	lumbar_extension	lumbar_bending	lumbar_rotation
      1.14950000	      0.63602523	      6.34084284	     -1.03637875	      0.13595962	      0.99705634	      0.28123982	     20.75946987	     -7.48369823	     -1.18991222	    -70.72330470	      4.36686908	     -9.64045963	     -2.34158929	      6.41488743	     11.74082211	      2.11532065	     -9.33248181	      2.45917879	    -10.92228088	      1.82044880	     -4.10469882	     -4.44568974	      2.22575148
      1.15366667	      0.69031519	      6.23073143	     -1.04597925	      0.14104184	      0.99785494	      0.28119571	     21.24040733	     -7.29583719	     -1.05944370	    -70.37972480	      4.85452866	     -9.85740587	     -2.45163202	      5.82520902	     11.63115788	      2.24740128	     -8.96014329	      2.52612923	    -10.92784298	      1.74834504	     -4.19341835	     -4.33345733	      2.16022929
      1.15783333	      0.68726489	      6.09010103	     -1.05331164	      0.14609202	      0.99854643	      0.28116452	     21.76581402	     -7.06661892	     -0.93224117	    -69.96900932	      5.35252189	     -9.95267933	     -2.50739953	      5.32869242	     11.48310669	      2.33677088	     -8.64639509	      2.60088284	    -10.88814918	      1.70588207	     -4.22357524	     -4.15512473	      2.11444233
      1.16200000	      0.68540845	      5.96402760	     -1.05861230	      0.15116695	      0.99919630	      0.28113883	     22.26897751	     -6.85776446	     -0.81587572	    -69.49723407	      5.83541596	    -10.03954827	     -2.54332324	      4.83059523	     11.34944644	      2.41172279	     -8.33175585	      2.69216620	    -10.84313560	      1.67532052	     -4.22966966	     -4.00321899	      2.06936948
      1.16616667	      0.74035034	      5.85068086	     -1.06489010	      0.15621718	      0.99988055	      0.28112540	     22.69238318	     -6.66203469	     -0.69814017	    -68.96983492	      6.34744388	    -10.15876197	     -2.63997573	      4.26076562	     11.23200760	      2.53354873	     -7.99238680	      2.77865418	    -10.82315108	      1.59658112	     -4.33835055	     -3.87476619	      1.99440579
      1.17033333	      0.71508571	      5.71761636	     -1.06029625	      0.16125648	      1.00041280	      0.28110749	     23.18311344	     -6.44378335	     -0.59369656	    -68.37719612	      6.80598326	    -10.19371742	     -2.67552580	      3.80552314	     11.08872259	      2.60956534	     -7.70522836	      2.86719192	    -10.78362181	      1.56282351	     -4.33423966	     -3.71030729	      1.94960297
      1.17450000	      0.72118364	      5.59363479	     -1.05224444	      0.16628646	      1.00095947	      0.28111512	     23.61552959	     -6.23295262	     -0.49129729	    -67.72103818	      7.29274435	    -10.24412360	     -2.72112351	      3.31744869	     10.95459598	      2.70397297	     -7.41992214	      2.96318898	    -10.75093794	      1.51952836	     -4.37390205	     -3.58076570	      1.88933733
      1.17866667	      0.73705595	      5.48051702	     -1.04269698	      0.17131421	      1.00146219	      0.28111130	     24.01903800	     -6.03805865	     -0.39418830	    -67.01182442	      7.76128949	    -10.27842192	     -2.77288120	      2.81517183	     10.83337603	      2.80184310	     -7.12203493	      3.05938041	    -10.72592154	      1.46978760	     -4.42128729	     -3.45333539	      1.81968996
      1.18283333	      0.76256567	      5.37286253	     -1.03263711	      0.17634931	      1.00193001	      0.28110200	     24.39260807	     -5.85451392	     -0.30855344	    -66.24793307	      8.19599078	    -10.32146948	     -2.90307017	      2.28965872	     10.72004463	      2.93330134	     -6.79901417	      3.14525687	    -10.74081460	      1.35217221	     -4.49313442	     -3.32685143	      1.70664949
      1.18700000	      0.73091926	      5.25805538	     -1.01133819	      0.18135714	      1.00227828	      0.28110113	     24.80739176	     -5.65876769	     -0.22696534	    -65.42309601	      8.61069531	    -10.32821989	     -2.94742776	      1.86084354	     10.59437891	      3.01130890	     -6.54079935	      3.24656734	    -10.71543012	      1.30861217	     -4.48013904	     -3.19097008	      1.66261373
      1.19116667	      0.70896252	      5.15872585	     -0.98601948	      0.18636568	      1.00258471	      0.28109596	     25.19307595	     -5.48370215	     -0.15085690	    -64.55067000	      9.01511959	    -10.35338938	     -2.99392566	      1.41598512	     10.48610678	      3.11022741	     -6.27133841	      3.34999069	    -10.69906164	      1.26363822	     -4.48935684	     -3.07786727	      1.59500341
      1.19533333	      0.69568802	      5.05954970	     -0.95815474	      0.19137033	      1.00285595	      0.28109026	     25.54614787	     -5.31087553	     -0.08386315	    -63.62145733	      9.38849946	    -10.38477039	     -3.04493448	      0.96155432	     10.37856884	      3.21840365	     -6.00075497	      3.45133129	    -10.69823229	      1.21568044	     -4.50810166	     -2.95838849	      1.51581236
      1.19950000	      0.68225686	      4.95930409	     -0.92356554	      0.19638019	      1.00310333	      0.28108736	     25.87234063	     -5.13939572	     -0.02815108	    -62.62859748	      9.72602045	    -10.42354708	     -3.09832327	      0.50540262	     10.26886349	      3.33418102	     -5.72683322	      3.54634402	    -10.70487922	      1.16695259	     -4.52742346	     -2.84244525	      1.42952359
      1.20366667	      0.71493142	      4.88334719	     -0.89305011	      0.20140224	      1.00335292	      0.28107610	     26.13210835	     -5.00356749	      0.01915217	    -61.59474401	     10.02335476	    -10.49090765	     -3.21553275	     -0.02573903	     10.18810929	      3.49270306	     -5.40122676	      3.61994692	    -10.77448493	      1.06411142	     -4.60881542	     -2.76055141	      1.28714703
      1.20783333	      0.65579014	      4.79921936	     -0.84790926	      0.20638278	      1.00342427	      0.28106508	     26.47382878	     -4.85349355	      0.06500489	    -60.51272102	     10.31025219	    -10.51033770	     -3.26222828	     -0.41200741	     10.09410499	      3.59301095	     -5.16375890	      3.71134875	    -10.77579248	      1.02304057	     -4.57571327	     -2.65623056	      1.23594507
      1.21200000	      0.62231060	      4.71649744	     -0.80166344	      0.21137952	      1.00349596	      0.28105729	     26.76059240	     -4.70993151	      0.09837586	    -59.37477573	     10.55794639	    -10.56178124	     -3.31430277	     -0.83827342	     10.00139124	      3.71609445	     -4.90435388	      3.80626961	    -10.79573450	      0.97960060	     -4.57459602	     -2.56128700	      1.15696692
      1.21616667	      0.61168506	      4.63835479	     -0.75241708	      0.21639290	      1.00358362	      0.28104617	     26.99300022	     -4.57627563	      0.12179901	    -58.17667151	     10.76130945	    -10.62936155	     -3.37435713	     -1.29671979	      9.91381323	      3.85015173	     -4.63157365	      3.88381962	    -10.83127543	      0.93078230	     -4.59568391	     -2.46591874	      1.05981355
      1.22033333	      0.63072340	      4.59219214	     -0.71331647	      0.22139797	      1.00363681	      0.28103354	     27.18553333	     -4.48161557	      0.14613792	    -56.95276833	     10.89873894	    -10.73063039	     -3.49694978	     -1.81104389	      9.86262370	      4.02999033	     -4.30765081	      3.93895390	    -10.94527150	      0.83172294	     -4.66126861	     -2.42062714	      0.90967556
      1.22450000	      0.55877719	      4.52808160	     -0.65409031	      0.22638668	      1.00353706	      0.28101157	     27.45132578	     -4.36984517	      0.15364701	    -55.68055378	     11.05738770	    -10.74775660	     -3.54875883	     -2.17879696	      9.78823801	      4.13796422	     -4.08031991	      4.01989904	    -10.96037381	      0.79096393	     -4.60995868	     -2.33302931	      0.85828621
      1.22866667	      0.52477180	      4.46486324	     -0.60192683	      0.23140015	      1.00345320	      0.28100845	     27.65004311	     -4.26267796	      0.14827175	    -54.35882899	     11.15185131	    -10.79569313	     -3.61285382	     -2.61116713	      9.71273074	      4.26667810	     -3.80820086	      4.10183775	    -11.00106333	      0.74152886	     -4.60986481	     -2.26507855	      0.77260917
      1.23283333	      0.49511604	      4.41516670	     -0.54873438	      0.23641102	      1.00334345	      0.28099813	     27.82381857	     -4.17406930	      0.13813461	    -52.99832209	     11.20702744	    -10.83905168	     -3.68036349	     -3.04656957	      9.65185133	      4.39931664	     -3.53864501	      4.17146593	    -11.05275969	      0.68932793	     -4.61101089	     -2.20555876	      0.68029355
      1.23700000	      0.51298561	      4.38625777	     -0.50933745	      0.24141702	      1.00325078	      0.28100798	     27.93168901	     -4.10613856	      0.13463746	    -51.60940120	     11.21306033	    -10.89414273	     -3.80108250	     -3.55377475	      9.61365030	      4.56224313	     -3.22463298	      4.21841785	    -11.15529858	      0.59102370	     -4.68305979	     -2.18967413	      0.54665890
      1.24116667	      0.43175713	      4.34170998	     -0.45168111	      0.24643973	      1.00299275	      0.28100411	     28.12176917	     -4.03006770	      0.09886819	    -50.18256556	     11.23746926	    -10.86779953	     -3.86178935	     -3.91742305	      9.55560331	      4.65426738	     -2.98843366	      4.29819611	    -11.18058815	      0.54185044	     -4.61320628	     -2.12682320	      0.49539385
      1.24533333	      0.39530463	      4.30590058	     -0.40580595	      0.25146741	      1.00276302	      0.28101787	     28.24341678	     -3.96361095	      0.06246580	    -48.72082185	     11.18964489	    -10.83897675	     -3.92736544	     -4.34259536	      9.50644250	      4.75513045	     -2.72551699	      4.37603898	    -11.21072388	      0.48711499	     -4.60507393	     -2.08124781	      0.41947028
      1.24950000	      0.39667388	      4.28539680	     -0.37020430	      0.25649884	      1.00254768	      0.28104705	     28.30397112	     -3.90998192	      0.03601952	    -47.23113874	     11.11611462	    -10.79307906	     -4.02747546	     -4.82105747	      9.47389897	      4.87521617	     -2.43657815	      4.43673302	    -11.26559361	      0.39500283	     -4.65451878	     -2.06326757	      0.31616566
      1.25366667	      0.33107478	      4.25636572	     -0.32723006	      0.26154805	      1.00220426	      0.28107554	     28.42118107	     -3.85712595	     -0.02832626	    -45.72402088	     11.04532973	    -10.68259652	     -4.08377783	     -5.20564908	      9.43022975	      4.93357020	     -2.19289746	      4.52047404	    -11.28101211	      0.34017713	     -4.60192819	     -2.02961891	      0.26953239
